<?xml version="1.0" standalone="no"?><!DOCTYPE svg PUBLIC "-//W3C//DTD SVG 1.1//EN" "http://www.w3.org/Graphics/SVG/1.1/DTD/svg11.dtd"><svg t="1700791141056" class="icon" viewBox="0 0 1024 1024" version="1.1" xmlns="http://www.w3.org/2000/svg" p-id="19312" xmlns:xlink="http://www.w3.org/1999/xlink" width="32" height="32"><path d="M773 139.2H251c-102.5 0-186.4 83.9-186.4 186.4v372.8c0 102.5 83.9 186.4 186.4 186.4h522c102.5 0 186.4-83.9 186.4-186.4V325.6c0-102.5-83.9-186.4-186.4-186.4zM418.8 309.3h37.3c20.5 0 37.3 16.8 37.3 37.3 0 20.5-16.8 37.3-37.3 37.3h-37.3c-20.5 0-37.3-16.8-37.3-37.3 0-20.5 16.8-37.3 37.3-37.3z m-167.8 0h37.3c20.5 0 37.3 16.8 37.3 37.3 0 20.5-16.8 37.3-37.3 37.3H251c-20.5 0-37.3-16.8-37.3-37.3 0.1-20.5 16.8-37.3 37.3-37.3z m522 426.4H251c-20.5 0-37.3-16.8-37.3-37.3s16.8-37.3 37.3-37.3h522c20.5 0 37.3 16.8 37.3 37.3s-16.8 37.3-37.3 37.3z m0-186.4H251c-20.5 0-37.3-16.8-37.3-37.3 0-20.5 16.8-37.3 37.3-37.3h522c20.5 0 37.3 16.8 37.3 37.3-0.1 20.5-16.8 37.3-37.3 37.3z" p-id="19313"></path></svg>