<?xml version="1.0" standalone="no"?><!DOCTYPE svg PUBLIC "-//W3C//DTD SVG 1.1//EN" "http://www.w3.org/Graphics/SVG/1.1/DTD/svg11.dtd"><svg t="1710473970660" class="icon" viewBox="0 0 1024 1024" version="1.1" xmlns="http://www.w3.org/2000/svg" p-id="11272" width="32" height="32" xmlns:xlink="http://www.w3.org/1999/xlink"><path d="M512 64C264.6 64 64 264.6 64 512s200.6 448 448 448 448-200.6 448-448S759.4 64 512 64z m0 790.7c-189.3 0-342.7-153.5-342.7-342.7S322.7 169.3 512 169.3 854.7 322.7 854.7 512 701.3 854.7 512 854.7z" p-id="11273"></path><path d="M512 342.7c-93.5 0-169.3 75.8-169.3 169.3 0 92.7 74.6 168.1 167 169.3 94.7 1.3 172.9-76.9 171.7-171.7-1.3-92.4-76.7-166.9-169.4-166.9z" p-id="11274"></path></svg>