<?xml version="1.0" standalone="no"?><!DOCTYPE svg PUBLIC "-//W3C//DTD SVG 1.1//EN" "http://www.w3.org/Graphics/SVG/1.1/DTD/svg11.dtd"><svg t="1710814913594" class="icon" viewBox="0 0 1024 1024" version="1.1" xmlns="http://www.w3.org/2000/svg" p-id="3994" width="32" height="32" xmlns:xlink="http://www.w3.org/1999/xlink"><path d="M874.057143 149.942857a512 512 0 1 0 0 724.114286 512 512 0 0 0 0-724.114286zM687.908571 636.16a25.782857 25.782857 0 0 1 0 36.571429l-15.542857 15.542857a25.782857 25.782857 0 0 1-36.571428 0L512 563.748571l-124.16 124.16a25.782857 25.782857 0 0 1-36.571429 0l-15.542857-15.542857a25.782857 25.782857 0 0 1 0-36.571428L460.251429 512l-124.16-124.16a25.782857 25.782857 0 0 1 0-36.571429l15.542857-15.542857a25.782857 25.782857 0 0 1 36.571428 0L512 460.251429l124.16-124.16a25.782857 25.782857 0 0 1 36.571429 0l15.542857 15.542857a25.782857 25.782857 0 0 1 0 36.571428L563.748571 512z" p-id="3995"></path></svg>