<?xml version="1.0" standalone="no"?><!DOCTYPE svg PUBLIC "-//W3C//DTD SVG 1.1//EN" "http://www.w3.org/Graphics/SVG/1.1/DTD/svg11.dtd"><svg t="1710481458300" class="icon" viewBox="0 0 1024 1024" version="1.1" xmlns="http://www.w3.org/2000/svg" p-id="42700" width="32" height="32" xmlns:xlink="http://www.w3.org/1999/xlink"><path d="M510.4 67.2c-246.6 0-446.5 199.9-446.5 446.5s199.9 446.5 446.5 446.5 446.5-199.9 446.5-446.5S757 67.2 510.4 67.2z m223.9 670.5c-24.1 24.1-63.5 24.1-87.6 0L510.4 601.4 374 737.7c-24.1 24.1-63.5 24.1-87.6 0-24.1-24.1-24.1-63.5 0-87.6l136.3-136.3-136.3-136.4c-24.1-24.1-24.1-63.5 0-87.6 24.1-24.1 63.5-24.1 87.6 0l136.3 136.3 136.3-136.3c24.1-24.1 63.5-24.1 87.6 0 24.1 24.1 24.1 63.5 0 87.6L598 513.7 734.3 650c24.1 24.1 24.1 63.6 0 87.7z" p-id="42701"></path></svg>