<?xml version="1.0" standalone="no"?><!DOCTYPE svg PUBLIC "-//W3C//DTD SVG 1.1//EN" "http://www.w3.org/Graphics/SVG/1.1/DTD/svg11.dtd"><svg t="1710815089011" class="icon" viewBox="0 0 1024 1024" version="1.1" xmlns="http://www.w3.org/2000/svg" p-id="5160" width="32" height="32" xmlns:xlink="http://www.w3.org/1999/xlink"><path d="M53.312 512a458.688 458.688 0 1 0 917.376 0A458.688 458.688 0 0 0 53.312 512zM417.92 350.08L512 444.16l94.08-94.08a48 48 0 1 1 67.84 67.84L579.84 512l94.08 94.08a48 48 0 0 1-67.84 67.84L512 579.84l-94.08 94.08a48 48 0 1 1-67.84-67.84L444.16 512 350.08 417.92a48 48 0 1 1 67.84-67.84z" p-id="5161"></path></svg>