<?xml version="1.0" standalone="no"?><!DOCTYPE svg PUBLIC "-//W3C//DTD SVG 1.1//EN" "http://www.w3.org/Graphics/SVG/1.1/DTD/svg11.dtd"><svg t="1720664096732" class="icon" viewBox="0 0 1024 1024" version="1.1" xmlns="http://www.w3.org/2000/svg" p-id="16232" width="32" height="32" xmlns:xlink="http://www.w3.org/1999/xlink"><path d="M638.38208 617.73312c20.97664 184.69888-251.8784 239.27296-335.83616 247.68 12.60032-130.16064-4.20352-348.44672 201.48736-348.44672-20.97152-12.59008 33.59232-134.30272 88.14592-197.27872 71.38304-335.84128-197.28384-230.8864-314.8288-184.71936-491.1616 361.00608-151.13728 734.65344-134.32832 755.61984 365.3376 339.55328 779.54048-217.66144 663.28576-394.61376-12.6464 7.59296-117.57056 117.5552-167.92576 121.75872z m-205.71648-428.1856c43.48416 0 78.70976 35.24608 78.70976 78.70464 0 43.48928-35.22048 78.72-78.70976 78.72-43.47392 0-78.70976-35.23072-78.70976-78.72 0-43.45856 35.24096-78.70464 78.70976-78.70464zM180.79232 724.78208c-43.45344 0-78.69952-35.24608-78.69952-78.70464 0-43.47904 35.23584-78.70976 78.69952-78.70976 43.48416 0 78.70976 35.23072 78.70976 78.70976 0 43.45856-35.23072 78.70464-78.70976 78.70464z m62.96576-230.89152c-43.45344 0-78.70464-35.23072-78.70464-78.71488s35.24608-78.70976 78.70464-78.70976c43.48416 0 78.73024 35.2256 78.73024 78.70976s-35.24096 78.71488-78.73024 78.71488z m381.32736 83.95776c118.9376-48.96768 384.7936-521.23136 384.7936-521.23136l-24.48384-20.98688s-398.64832 346.6496-440.20224 484.35712c14.29504 9.83552 61.63456 47.42656 79.89248 57.86112z m-80.45056-55.98208c0.16384-0.6144 0.36352-1.23392 0.55808-1.87392-4.90496-3.35872-5.92384-3.47136-0.55808 1.87392z m-122.46528 62.976c-59.45856 45.47584-41.97888 181.9136-73.45664 230.8864 66.46272-48.96768 164.4288-34.98496 216.88832-122.4192 17.49504-48.99328-13.98272-171.4432-143.43168-108.4672z m0 0" p-id="16233"></path></svg>