<?xml version="1.0" standalone="no"?><!DOCTYPE svg PUBLIC "-//W3C//DTD SVG 1.1//EN" "http://www.w3.org/Graphics/SVG/1.1/DTD/svg11.dtd"><svg t="1699860387444" class="icon" viewBox="0 0 1024 1024" version="1.1" xmlns="http://www.w3.org/2000/svg" p-id="22165" width="32" height="32" xmlns:xlink="http://www.w3.org/1999/xlink"><path d="M920.9 400.8c-22.1-53.6-54.2-102.4-94.6-143.8-40.6-40.9-88.7-73.5-141.8-95.9-54.5-23.6-113.2-35.7-172.5-35.6-59.3-0.1-118 12-172.5 35.6-53 22.5-101.1 55.1-141.7 95.9-40.4 41.4-72.5 90.2-94.5 143.8-23.4 55.3-35.4 114.9-35.3 175 0 62.3 12 121.4 35.7 176.9 23.2 54.7 56.8 104.2 99.1 145.8h618.4c42.3-41.6 76-91.1 99.1-145.8 23.8-55.8 35.9-116.1 35.6-176.9 0.3-60.1-11.7-119.6-35-175z m-303.8 63l-39.2 190.4c11 20.3 12.8 45.6 2.5 68.3-17 37.5-60.2 53.8-96.5 36.3-36.4-17.5-52.1-62.1-35.1-99.7 10.3-22.7 30.1-37.5 52.3-41.9l116-153.4z m278.4 192.9c0 18.6-15.1 33.8-33.7 33.8h-97.6c-18.6 0-33.7-15.1-33.7-33.8 0-18.6 15.1-33.8 33.7-33.8h97.6c18.6 0 33.7 15.2 33.7 33.8zM733.8 485c-13.2 13.2-34.5 13.2-47.7 0-13.2-13.2-13.2-34.6 0-47.7l69-69.1c13.2-13.2 34.5-13.2 47.7 0 13.2 13.2 13.2 34.6 0 47.7l-69 69.1zM481 369v-97.7c0-18.6 15.1-33.8 33.7-33.8s33.7 15.1 33.7 33.8V369c0 18.6-15.1 33.8-33.7 33.8S481 387.6 481 369z m-137.8 68.1c13.2 13.2 13.2 34.6 0 47.7-13.2 13.2-34.5 13.2-47.7 0l-69-69.1c-13.2-13.2-13.2-34.6 0-47.7 13.2-13.2 34.5-13.2 47.7 0l69 69.1z m-44.5 219.4c0 18.6-15.1 33.8-33.7 33.8h-97.6c-18.6 0-33.7-15.1-33.7-33.8 0-18.6 15.1-33.8 33.7-33.8H265c18.6 0.1 33.7 15.2 33.7 33.8z" p-id="22166"></path></svg>