<?xml version="1.0" standalone="no"?><!DOCTYPE svg PUBLIC "-//W3C//DTD SVG 1.1//EN" "http://www.w3.org/Graphics/SVG/1.1/DTD/svg11.dtd"><svg t="1711614277726" class="icon" viewBox="0 0 1024 1024" version="1.1" xmlns="http://www.w3.org/2000/svg" p-id="5460" width="32" height="32" xmlns:xlink="http://www.w3.org/1999/xlink"><path d="M914.6 63.4H282c-12.9 0-23.4 10.5-23.4 23.4v22.4c0 10.7 8.7 19.3 19.3 19.3h560.6c31.4 0 56.8 25.4 56.8 56.8v619.9c0 13.9 11.3 25.2 25.2 25.2h16c13.6 0 24.8-11.2 24.8-24.8V110.2c0.1-25.7-20.9-46.8-46.7-46.8z" p-id="5461"></path><path d="M803.5 192.5H95c-16.5 0-30 13.5-30 30V931c0 16.5 13.5 30 30 30h708.4c16.5 0 30-13.5 30-30V222.5c0.1-16.5-13.4-30-29.9-30zM704 576.3c0 26.1-21.4 47.5-47.5 47.5h-161v161c0 26.1-21.4 47.5-47.5 47.5s-47.5-21.4-47.5-47.5v-161h-161c-26.1 0-47.5-21.4-47.5-47.5s21.4-47.5 47.5-47.5h161v-161c0-26.1 21.4-47.5 47.5-47.5s47.5 21.4 47.5 47.5v161h161c26.1 0 47.5 21.3 47.5 47.5z" p-id="5462"></path></svg>