<?xml version="1.0" standalone="no"?><!DOCTYPE svg PUBLIC "-//W3C//DTD SVG 1.1//EN" "http://www.w3.org/Graphics/SVG/1.1/DTD/svg11.dtd"><svg t="1700790310102" class="icon" viewBox="0 0 1024 1024" version="1.1" xmlns="http://www.w3.org/2000/svg" p-id="15620" width="32" height="32" xmlns:xlink="http://www.w3.org/1999/xlink"><path d="M735.616 27.136c0-14.976-12.16-27.136-27.136-27.136h-392.96c-14.976 0-27.136 12.16-27.136 27.136V101.12c0 14.976 12.16 27.136 27.136 27.136h393.088c14.976 0 27.136-12.16 27.136-27.136V27.136z m0 0" p-id="15621"></path><path d="M1012.608 967.552L832 664.064c-8.832-13.824-16.128-25.088-32.512-25.088-16.256 0-25.472 13.184-32.512 25.088l-180.48 303.488c-7.552 11.776-12.928 25.728-9.6 38.016 2.944 10.624 14.464 17.92 32 17.92h381.312c22.016 0 29.44-10.368 31.616-16 4.864-12.544-1.152-27.008-9.216-39.936zM777.6 764.416c0-12.288 9.984-22.144 22.144-22.144 12.288 0 22.144 9.984 22.144 22.144V867.84c0 12.288-9.984 22.144-22.144 22.144-12.288 0-22.144-9.984-22.144-22.144v-103.424z m22.144 199.68c-13.184 0-23.936-10.752-23.936-23.936 0-13.184 10.624-23.936 23.936-23.936 13.184 0 23.936 10.752 23.936 23.936 0 13.312-10.752 23.936-23.936 23.936z m0 0" p-id="15622"></path><path d="M837.376 1002.624c0-20.736-16.768-37.504-37.504-37.504-20.736 0-37.504 16.768-37.504 37.504 0 7.936 2.432 15.232 6.656 21.376H830.72c4.096-6.016 6.656-13.44 6.656-21.376zM583.552 845.44H430.848c-22.272 0-40.32-18.304-40.32-40.704s18.048-40.704 40.32-40.704h201.216l68.352-114.944H430.848c-22.272 0-40.32-17.792-40.32-40.192s18.048-40.192 40.32-40.192h314.624c0.896 0 1.792 0 2.688 0.128l0.384-0.64c11.008-18.688 25.472-39.424 51.072-39.424s37.248 17.536 51.072 39.424l108.16 181.76V145.152c0-44.928-36.608-81.536-81.536-81.536h-77.952v100.736c0 14.976-12.032 27.52-27.008 27.52H252.928c-14.976 0-27.008-12.544-27.008-27.52V63.616h-79.104c-44.8 0-81.536 36.608-81.536 81.536V942.08c0 44.8 36.608 81.92 81.536 81.92h330.368l106.368-178.56zM430.848 373.632h314.624c22.272 0 40.32 17.792 40.32 40.192-0.128 22.4-18.176 40.192-40.448 40.192H430.848c-22.272 0-40.32-17.792-40.32-40.192-0.128-22.4 17.92-40.192 40.32-40.192zM298.112 844.416c-22.4 0-40.576-18.176-40.576-40.576s18.176-40.576 40.576-40.576 40.576 18.176 40.576 40.576-18.176 40.576-40.576 40.576z m0-195.328c-22.4 0-40.576-18.176-40.576-40.576s18.176-40.576 40.576-40.576 40.576 18.176 40.576 40.576-18.176 40.576-40.576 40.576z m0-195.2c-22.4 0-40.576-18.176-40.576-40.576s18.176-40.576 40.576-40.576 40.576 18.176 40.576 40.576-18.176 40.576-40.576 40.576z" p-id="15623"></path></svg>