<?xml version="1.0" standalone="no"?><!DOCTYPE svg PUBLIC "-//W3C//DTD SVG 1.1//EN" "http://www.w3.org/Graphics/SVG/1.1/DTD/svg11.dtd"><svg t="1708331051506" class="icon" viewBox="0 0 1024 1024" version="1.1" xmlns="http://www.w3.org/2000/svg" p-id="2776" width="32" height="32" xmlns:xlink="http://www.w3.org/1999/xlink"><path d="M921 315.4H771.9l175-175c17.4-17.4 17.4-45.9 0-63.4-17.4-17.4-45.9-17.4-63.4 0l-175 175V103c-3-21.8-21-39-43.6-39-24.6 0-44.8 20.2-44.8 44.8V359c0 12.3 5 23.5 13.2 31.6s19.3 13.2 31.6 13.2h250.2c24.6 0 44.8-20.2 44.8-44.8 0.1-22.5-17.1-40.6-38.9-43.6zM359 64c-22.6 0-40.6 17.2-43.6 39v149.1l-175-175C123 59.7 94.5 59.7 77 77.1s-17.4 45.9 0 63.4l175 175H103c-21.8 3-39 21-39 43.6 0 24.6 20.2 44.8 44.8 44.8H359c12.3 0 23.5-5 31.6-13.2s13.2-19.3 13.2-31.6V108.9c0-24.7-20.1-44.9-44.8-44.9zM960 665c0-24.6-20.2-44.8-44.8-44.8H665c-12.3 0-23.5 5-31.6 13.2s-13.2 19.3-13.2 31.6v250.2c0 24.6 20.2 44.8 44.8 44.8 22.6 0 40.6-17.2 43.6-39V771.9l175 175c17.4 17.4 45.9 17.4 63.4 0 17.4-17.4 17.4-45.9 0-63.4l-175-175h149c21.8-2.9 39-21 39-43.5zM390.7 633.3c-8.1-8.1-19.3-13.2-31.6-13.2H108.8C84.2 620.2 64 640.3 64 665c0 22.6 17.2 40.6 39 43.6h149.1l-175 175c-17.4 17.4-17.4 45.9 0 63.4 17.4 17.4 45.9 17.4 63.4 0l175-175v149c3 21.8 21 39 43.6 39 24.6 0 44.8-20.2 44.8-44.8V665c-0.1-12.4-5.1-23.6-13.2-31.7z" p-id="2777"></path></svg>