<?xml version="1.0" standalone="no"?><!DOCTYPE svg PUBLIC "-//W3C//DTD SVG 1.1//EN" "http://www.w3.org/Graphics/SVG/1.1/DTD/svg11.dtd"><svg t="1710468818716" class="icon" viewBox="0 0 1024 1024" version="1.1" xmlns="http://www.w3.org/2000/svg" p-id="2614" id="mx_n_1710468818717" width="32" height="32" xmlns:xlink="http://www.w3.org/1999/xlink"><path d="M887.3 492.3L759.8 333c-6.2-7.7-15.4-12-24.9-12-3.5 0-7.1 0.6-10.5 1.8-12.8 4.5-21.3 16.6-21.3 30.1v95.6h-255c-35.2 0-63.7 28.5-63.7 63.7s28.5 63.7 63.7 63.7H703v95.6c0 13.5 8.6 25.6 21.3 30.1 3.5 1.2 7 1.8 10.5 1.8 9.5 0 18.7-4.3 24.9-12L887.2 532c9.4-11.5 9.4-28 0.1-39.7zM575.5 767.2H320.1c-34.9 0-63.3-28.5-63.3-63.7V321v-0.5c0-34.9 28.5-63.2 63.8-63.2h254.9c35.2 0 63.8-28.5 63.8-63.7s-28.5-63.7-63.8-63.7H256.8c-70.4 0-127.5 57.1-127.5 127.5v510c0 70.4 57.1 127.5 127.5 127.5h318.7c35.2 0 63.8-28.5 63.8-63.7 0-35.4-28.6-64-63.8-64z m0 0" p-id="2615"></path></svg>