<?xml version="1.0" standalone="no"?><!DOCTYPE svg PUBLIC "-//W3C//DTD SVG 1.1//EN" "http://www.w3.org/Graphics/SVG/1.1/DTD/svg11.dtd"><svg t="1713168735775" class="icon" viewBox="0 0 1024 1024" version="1.1" xmlns="http://www.w3.org/2000/svg" p-id="7256" width="32" height="32" xmlns:xlink="http://www.w3.org/1999/xlink"><path d="M220.32 170.656h572.608A75.712 75.712 0 0 1 868.64 246.4v39.36c0 23.232-9.472 45.44-26.24 61.568l-197.632 189.728c-8.16 7.84-12.896 18.56-13.12 29.856l-6.976 327.232a42.656 42.656 0 0 1-72.8 29.28l-134.496-134.496c-8-8-12.48-18.88-12.48-30.176v-190.848c0-11.84-4.992-23.232-13.696-31.296l-214.496-198.624a85.344 85.344 0 0 1-27.36-62.592V241.664c0-39.232 31.776-71.008 70.976-71.008z m132.096 142.176v91.392l111.712 111.68v-91.36l-111.68-111.68z" p-id="7257"></path></svg>