<?xml version="1.0" standalone="no"?><!DOCTYPE svg PUBLIC "-//W3C//DTD SVG 1.1//EN" "http://www.w3.org/Graphics/SVG/1.1/DTD/svg11.dtd"><svg t="1709278847236" class="icon" viewBox="0 0 1195 1024" version="1.1" xmlns="http://www.w3.org/2000/svg" p-id="8050" width="37.34375" height="32" xmlns:xlink="http://www.w3.org/1999/xlink"><path d="M1040.370536 0H154.755117A154.602122 154.602122 0 0 0 0 153.990139v716.019722a154.602122 154.602122 0 0 0 154.755117 153.990139H1040.370536a154.602122 154.602122 0 0 0 154.755118-153.990139v-716.019722A154.602122 154.602122 0 0 0 1040.370536 0zM370.784999 915.067085H154.755117a45.286717 45.286717 0 0 1-45.363215-45.057224V740.499029h261.393097v174.568056z m0-265.294487H109.315404v-174.41506h261.393097z m0-265.294487H109.315404v-175.945017h261.393097z m374.839385 530.512476H461.893919V740.499029h283.653967v174.568056z m0-265.294487H461.893919v-174.41506h283.653967v174.41506z m0-265.294486H461.893919v-175.945018h283.653967v175.945018z m339.956372 485.455251a45.286717 45.286717 0 0 1-45.363215 45.057224h-203.484238V740.499029h248.770955v129.510832z m0-220.160765h-248.847453v-174.41506h248.770955v174.41506z m0-265.294486h-248.847453v-175.945018h248.770955v175.945018z" p-id="8051"></path></svg>