<?xml version="1.0" standalone="no"?><!DOCTYPE svg PUBLIC "-//W3C//DTD SVG 1.1//EN" "http://www.w3.org/Graphics/SVG/1.1/DTD/svg11.dtd"><svg t="1708331020341" class="icon" viewBox="0 0 1024 1024" version="1.1" xmlns="http://www.w3.org/2000/svg" p-id="2570" width="32" height="32" xmlns:xlink="http://www.w3.org/1999/xlink"><path d="M344.8 615.8L153.6 807V665c0-24.6-20.2-44.8-44.8-44.8-24.6 0-44.8 20.1-44.8 44.8v250.2c0 12.3 5 23.5 13.2 31.6S96.5 960 108.8 960H359c24.6 0 44.8-20.2 44.8-44.8 0-24.6-20.2-44.8-44.8-44.8H217l191.2-191.2c17.4-17.4 17.4-45.9 0-63.4-17.5-17.4-46-17.4-63.4 0zM679.2 408.2L870.4 217v142c0 24.6 20.2 44.8 44.8 44.8 24.6 0 44.8-20.2 44.8-44.8V108.8c0-12.3-5-23.5-13.2-31.6S927.5 64 915.2 64H665c-24.6 0-44.8 20.2-44.8 44.8 0 24.6 20.2 44.8 44.8 44.8h142L615.8 344.8c-17.4 17.4-17.4 45.9 0 63.4 17.5 17.4 46 17.4 63.4 0zM377.6 64H108.8C84.2 64 64 84.2 64 108.8v268.8c0 24.6 20.2 44.8 44.8 44.8s44.8-20.2 44.8-44.8v-224h224c24.6 0 44.8-20.2 44.8-44.8S402.2 64 377.6 64zM915.2 601.6c-24.6 0-44.8 20.2-44.8 44.8v224h-224c-24.6 0-44.8 20.2-44.8 44.8s20.2 44.8 44.8 44.8h268.8c24.6 0 44.8-20.2 44.8-44.8V646.4c0-24.6-20.2-44.8-44.8-44.8z" p-id="2571"></path></svg>