<?xml version="1.0" standalone="no"?><!DOCTYPE svg PUBLIC "-//W3C//DTD SVG 1.1//EN" "http://www.w3.org/Graphics/SVG/1.1/DTD/svg11.dtd"><svg t="1713504493735" class="icon" viewBox="0 0 1024 1024" version="1.1" xmlns="http://www.w3.org/2000/svg" p-id="1703" width="32" height="32" xmlns:xlink="http://www.w3.org/1999/xlink"><path d="M825.406061 326.376727c15.515152 0 27.927273 12.412121 27.927272 27.927273v456.145455c0 31.030303-24.824242 55.854545-58.957575 55.854545H341.333333c-15.515152 0-27.927273-12.412121-27.927272-27.927273s12.412121-27.927273 27.927272-27.927272h425.115152c15.515152 0 27.927273-12.412121 27.927273-27.927273v-428.218182c3.10303-15.515152 15.515152-27.927273 31.030303-27.927273z m-114.812122-142.739394c15.515152 0 27.927273 12.412121 27.927273 27.927273v512c0 15.515152-12.412121 27.927273-27.927273 27.927273H198.593939c-15.515152 0-27.927273-12.412121-27.927272-27.927273v-512c0-15.515152 12.412121-27.927273 27.927272-27.927273h512z m-220.315151 127.224243c-9.309091-9.309091-27.927273-9.309091-37.236364 0H449.939394c-9.309091 9.309091-9.309091 24.824242 3.10303 34.133333l117.915152 117.915152-117.915152 117.915151H449.939394c-9.309091 9.309091-9.309091 24.824242 3.10303 34.133333 9.309091 9.309091 27.927273 9.309091 37.236364 0l155.151515-152.048484-155.151515-152.048485z m-183.078788 121.018182c-18.618182 0-31.030303 15.515152-31.030303 31.030303 0 18.618182 15.515152 31.030303 31.030303 31.030303 18.618182 0 31.030303-15.515152 31.030303-31.030303 3.10303-15.515152-12.412121-31.030303-31.030303-31.030303z m105.50303 0c-18.618182 0-31.030303 15.515152-31.030303 31.030303 0 18.618182 15.515152 31.030303 31.030303 31.030303 18.618182 0 31.030303-15.515152 31.030303-31.030303s-12.412121-31.030303-31.030303-31.030303z" p-id="1704"></path></svg>