<?xml version="1.0" standalone="no"?><!DOCTYPE svg PUBLIC "-//W3C//DTD SVG 1.1//EN" "http://www.w3.org/Graphics/SVG/1.1/DTD/svg11.dtd"><svg t="1713509033808" class="icon" viewBox="0 0 1024 1024" version="1.1" xmlns="http://www.w3.org/2000/svg" p-id="12223" id="mx_n_1713509033809" width="32" height="32" xmlns:xlink="http://www.w3.org/1999/xlink"><path d="M950.4 784h-304c-25.6 0-48-22.4-48-48s22.4-48 48-48h304c25.6 0 48 22.4 48 48s-22.4 48-48 48z m0 0" p-id="12224"></path><path d="M644.6 784c-12.8 0-25.6-3.2-32-12.8-19.2-19.2-19.2-48 0-67.2L756.6 560c19.2-19.2 48-19.2 67.2 0s19.2 48 0 67.2L679.8 771.25c-12.8 9.6-25.6 12.8-35.2 12.8z m0 0" p-id="12225"></path><path d="M789.15 928c-12.8 0-25.6-3.2-32-12.8L613.1 771.25c-19.2-19.2-19.2-48 0-67.2s48-19.2 67.2 0L824.35 848c19.2 19.2 19.2 48 0 67.2-9.6 6.4-22.4 12.8-35.2 12.8z m0 0" p-id="12226"></path><path d="M889.6 979.2a140.3875 140.3875 0 0 1-99.2 41.6c-38.4 0-70.4-12.8-99.2-41.6l-140.8-144c-19.2-19.2-32-44.8-38.4-70.4-3.2-9.6-3.2-19.2-3.2-28.75s0-19.2 3.2-28.75c6.4-25.6 19.2-51.25 38.4-70.4L694.35 492.8a139.0875 139.0875 0 0 1 198.4 0c19.5625 19.575 57.8375 69.0625 74.775 91.25a4.6875 4.6875 0 0 0 8.4125-2.8375V254.2875c0-72.975-59.7125-132.6875-132.6875-132.6875H292.6875c-72.975 0-132.6875 59.7125-132.6875 132.6875v637.025c0 72.975 59.7125 132.6875 132.6875 132.6875h547.425c72.975 0 132.6875-59.7125 132.6875-132.6875a4.6875 4.6875 0 0 0-8.475-2.775c-16.425 22.525-52.9125 71.275-74.725 90.6625z m41.6-102.4" p-id="12227"></path><path d="M89.6 857.6V179.2c0-73.6 60.8-134.4 134.4-134.4h582.4C784 19.2 748.8 0 710.4 0H153.6C83.2 0 25.6 57.6 25.6 128v649.6c0 48 25.6 89.6 67.2 112-3.2-12.8-3.2-22.4-3.2-32z m0 0" p-id="12228"></path></svg>