<?xml version="1.0" standalone="no"?><!DOCTYPE svg PUBLIC "-//W3C//DTD SVG 1.1//EN" "http://www.w3.org/Graphics/SVG/1.1/DTD/svg11.dtd"><svg t="1720663840582" class="icon" viewBox="0 0 1024 1024" version="1.1" xmlns="http://www.w3.org/2000/svg" p-id="12025" width="32" height="32" xmlns:xlink="http://www.w3.org/1999/xlink"><path d="M543.808 128c159.36 0 288.213333 70.698667 344.618667 189.141333 60.373333 126.570667 25.173333 282.517333-96.490667 429.184v115.050667a29.866667 29.866667 0 0 1-14.933333 27.008c-4.522667 2.624-74.24 4.458667-149.034667 5.674667l-16.085333 0.234666c-72.533333 1.088-145.792 1.6-165.888 1.706667H256.853333c-16.938667 0-30.634667-13.418667-30.634666-30.016v-187.776c-36.586667-4.693333-90.24-17.002667-110.848-49.792-10.666667-16.874667-11.562667-37.013333-2.645334-56.682667 22.613333-49.92 60.8-85.845333 79.658667-101.482666C200.746667 404.608 253.269333 128 543.786667 128z m-83.84 229.333333h-0.213333a29.013333 29.013333 0 0 0-27.306667 19.072l-89.6 246.954667c-5.034667 14.826667 2.816 30.933333 17.685333 36.266667 14.848 5.312 31.274667-2.133333 36.949334-16.725334l17.408-48.128h86.229333l16.384 47.637334a29.12 29.12 0 0 0 36.650667 17.344c14.933333-5.056 23.082667-20.992 18.325333-35.904L487.210667 376.746667v0.064a29.013333 29.013333 0 0 0-27.264-19.498667z m172.330667-16c-16.042667 0-29.056 12.885333-29.056 28.778667v254.442667c0 15.893333 13.013333 28.778667 29.056 28.778666 16.021333 0 29.034667-12.885333 29.034666-28.778666V370.112c0-15.893333-13.013333-28.778667-29.034666-28.778667z m-173.226667 131.733334l22.122667 64.213333h-45.44l23.338666-64.213333z" p-id="12026"></path></svg>