<?xml version="1.0" standalone="no"?><!DOCTYPE svg PUBLIC "-//W3C//DTD SVG 1.1//EN" "http://www.w3.org/Graphics/SVG/1.1/DTD/svg11.dtd"><svg t="1711615893576" class="icon" viewBox="0 0 1024 1024" version="1.1" xmlns="http://www.w3.org/2000/svg" p-id="23322" width="32" height="32" xmlns:xlink="http://www.w3.org/1999/xlink"><path d="M920.756706 60.235294H163.478588C106.496 60.235294 60.235294 106.496 60.235294 163.478588v757.278118C60.235294 977.739294 106.496 1024 163.478588 1024h757.278118c56.982588 0 103.243294-46.260706 103.243294-103.243294V163.478588C1024 106.496 977.739294 60.235294 920.756706 60.235294z m-444.596706 582.957177c0 93.786353-55.055059 136.613647-135.348706 136.613647-72.463059 0-114.447059-37.406118-135.951059-82.82353l73.788236-44.574117c14.215529 25.238588 27.105882 46.501647 58.307764 46.501647 29.696 0 48.609882-11.625412 48.609883-56.982589v-307.802353h90.593882v309.067295z m49.272471 44.092235l73.788235-42.586353c19.335529 31.623529 44.754824 55.115294 89.268706 55.115294 37.406118 0 61.500235-18.733176 61.500235-44.754823 0-31.021176-24.515765-41.984-66.017882-60.235295l-22.588236-9.697882c-65.415529-27.708235-108.664471-62.825412-108.66447-136.613647 0-67.945412 51.862588-119.627294 132.517647-119.627294 57.645176 0 98.966588 20.058353 128.662588 72.523294l-70.535529 45.176471c-15.540706-27.708235-32.286118-38.731294-58.307765-38.731295-26.503529 0-43.248941 16.805647-43.248941 38.731295 0 27.105882 16.745412 38.068706 55.717647 55.055058l22.588235 9.697883c76.980706 32.888471 120.229647 66.680471 120.229647 142.396235 0 81.317647-64.090353 126.072471-149.925647 126.072471-84.088471 0-138.541176-39.996235-165.044706-92.521412z" p-id="23323"></path></svg>