<?xml version="1.0" standalone="no"?><!DOCTYPE svg PUBLIC "-//W3C//DTD SVG 1.1//EN" "http://www.w3.org/Graphics/SVG/1.1/DTD/svg11.dtd"><svg t="1715760064074" class="icon" viewBox="0 0 1365 1024" version="1.1" xmlns="http://www.w3.org/2000/svg" p-id="7532" width="42.65625" height="32" xmlns:xlink="http://www.w3.org/1999/xlink"><path d="M878.666667 825.866667H485.733333c-22.8 0.8-40.933333 19.466667-40.933333 42.266666s18.133333 41.6 40.933333 42.266667h393.066667c22.8-0.8 40.933333-19.6 40.8-42.4 0-22.8-18.133333-41.466667-40.933333-42.133333z m88-712.666667H397.866667c-63.6 0-115.2 51.6-115.2 115.2V658.666667c0 63.6 51.6 115.2 115.2 115.2h568.666666c63.6 0 115.2-51.6 115.2-115.2V228.266667c0-63.6-51.466667-115.066667-115.066666-115.066667z m-12.8 438H814.266667c-10.266667 0-20.133333-4-27.6-11.066667l-134.133334-128.4-62 114.933334c-6.933333 12.933333-20.4 20.933333-35.066666 20.933333H420.4c-22 0-39.866667-17.866667-39.866667-39.866667s17.866667-39.866667 39.866667-39.866666h111.2l75.733333-140c5.866667-10.933333 16.533333-18.4 28.8-20.4 12.266667-1.866667 24.666667 2 33.733334 10.533333l160.533333 153.6h123.6c22 0 39.866667 17.866667 39.866667 39.866667-0.133333 21.866667-18 39.733333-40 39.733333z m0 0" p-id="7533"></path></svg>