<?xml version="1.0" standalone="no"?><!DOCTYPE svg PUBLIC "-//W3C//DTD SVG 1.1//EN" "http://www.w3.org/Graphics/SVG/1.1/DTD/svg11.dtd"><svg t="1709703770445" class="icon" viewBox="0 0 1024 1024" version="1.1" xmlns="http://www.w3.org/2000/svg" p-id="14847" width="32" height="32" xmlns:xlink="http://www.w3.org/1999/xlink"><path d="M509.568 74.688h4.864c93.44 0 166.912 0 224.192 7.68 58.752 7.936 105.344 24.448 141.952 61.056 36.672 36.608 53.12 83.2 61.056 141.952 7.68 57.28 7.68 130.688 7.68 224.192v4.864c0 93.44 0 166.912-7.68 224.192-7.872 58.752-24.384 105.344-61.056 141.952-36.608 36.672-83.2 53.12-141.952 61.056-57.28 7.68-130.688 7.68-224.192 7.68h-4.864c-93.44 0-166.912 0-224.192-7.68-58.752-7.872-105.344-24.384-141.952-61.056-36.608-36.608-53.12-83.2-61.056-141.952-7.68-57.28-7.68-130.688-7.68-224.192v-4.864c0-93.44 0-166.912 7.68-224.192 7.936-58.752 24.448-105.344 61.056-141.952 36.608-36.608 83.2-53.12 141.952-61.056 57.28-7.68 130.752-7.68 224.192-7.68zM351.616 351.616a71.552 71.552 0 0 1 101.12 0l219.648 219.648a71.552 71.552 0 1 1-101.12 101.12L488.896 590.08c-9.472-9.472-11.2-17.408-10.944-22.528a24.384 24.384 0 0 1 8.32-16.704 28.736 28.736 0 0 1 19.584-7.68c6.848 0.064 16.064 2.752 26.24 12.864l42.624 42.688a32 32 0 1 0 45.248-45.248L577.28 510.72c-43.52-43.584-100.224-38.4-134.272-7.168a88.32 88.32 0 0 0-28.992 61.312c-1.088 25.024 8.96 49.792 29.632 70.4l82.368 82.368a135.552 135.552 0 1 0 191.616-191.68L498.048 306.368a135.552 135.552 0 1 0-191.68 191.68l36.608 36.608a32 32 0 1 0 45.248-45.248l-36.608-36.608a71.552 71.552 0 0 1 0-101.12z" p-id="14848"></path></svg>