<?xml version="1.0" standalone="no"?><!DOCTYPE svg PUBLIC "-//W3C//DTD SVG 1.1//EN" "http://www.w3.org/Graphics/SVG/1.1/DTD/svg11.dtd"><svg t="1709703462354" class="icon" viewBox="0 0 1024 1024" version="1.1" xmlns="http://www.w3.org/2000/svg" p-id="4150" width="32" height="32" xmlns:xlink="http://www.w3.org/1999/xlink"><path d="M511.999488 62.400189c-248.307296 0-449.599811 201.292516-449.599811 449.599811s201.292516 449.599811 449.599811 449.599811 449.599811-201.292516 449.599812-449.599811-201.292516-449.599811-449.599812-449.599811z m212.108863 473.867517L536.268218 724.107839c-31.568996 31.568996-73.541947 48.954969-118.188796 48.954968-44.644803 0-86.618776-17.385972-118.187773-48.954968-31.57002-31.57002-48.955992-73.54297-48.955991-118.189819 0-44.645826 17.386996-86.618776 48.955991-118.188796l78.643128-78.643128c44.030819-44.029796 115.673509-44.029796 159.702282 0 44.030819 44.029796 44.030819 115.672486 0 159.702281l-91.664699 91.665723c-10.232039 10.229992-26.819832 10.229992-37.051871 0-10.231015-10.232039-10.231015-26.819832 0-37.050847l91.665723-91.665723c23.600511-23.600511 23.600511-62.001099 0-85.600587-23.600511-23.600511-62.001099-23.600511-85.602634 0l-78.644151 78.643128c-44.73997 44.740994-44.73997 117.535927 0 162.27692 44.73997 44.73997 117.53695 44.73997 162.27692 0l187.840133-187.840132c44.738947-44.740994 44.738947-117.53695 0-162.275897-44.73997-44.740994-117.53695-44.73997-162.276921 0-10.229992 10.231015-26.818809 10.231015-37.050847 0-10.231015-10.232039-10.231015-26.819832 0-37.051871 31.568996-31.568996 73.543993-48.954969 118.187773-48.953945 44.647873 0 86.6198 17.384949 118.190842 48.953945 31.568996 31.571043 48.954969 73.543993 48.954969 118.189819s-17.384949 86.6198-48.953945 118.188796z" p-id="4151"></path></svg>