<?xml version="1.0" standalone="no"?><!DOCTYPE svg PUBLIC "-//W3C//DTD SVG 1.1//EN" "http://www.w3.org/Graphics/SVG/1.1/DTD/svg11.dtd"><svg t="1700789800671" class="icon" viewBox="0 0 1024 1024" version="1.1" xmlns="http://www.w3.org/2000/svg" p-id="7031" width="32" height="32" xmlns:xlink="http://www.w3.org/1999/xlink"><path d="M64 783.168l0 40.704C64 885.056 89.28 960 150.72 960l722.944 0C934.72 960 960 885.056 960 823.872l0-40.704c0 61.056-38.464 77.248-99.584 77.248L163.584 860.416C102.08 860.416 64 844.288 64 783.168zM64 150.336l0 510.656c0 61.056 38.08 99.904 99.584 99.904l696.896 0c61.12 0 99.584-38.848 99.584-99.904L960.064 150.336C960 89.216 934.72 64 873.664 64l-76.544 0 0 92.416c24.448 14.336 40.768 40.32 40.768 70.464 0 44.864-36.672 81.536-81.472 81.536-44.8 0-81.472-36.608-81.472-81.536 0-30.144 16.256-56.128 40.704-70.464L715.648 64 308.352 64l0 92.416c24.384 14.336 40.704 40.32 40.704 70.464 0 44.864-36.672 81.536-81.472 81.536-44.8 0-81.472-36.608-81.472-81.536 0-30.144 16.256-56.128 40.704-70.464L226.816 64l-76.16 0C89.28 64 64 89.216 64 150.336z" p-id="7032"></path></svg>