<?xml version="1.0" standalone="no"?><!DOCTYPE svg PUBLIC "-//W3C//DTD SVG 1.1//EN" "http://www.w3.org/Graphics/SVG/1.1/DTD/svg11.dtd"><svg t="1700789933174" class="icon" viewBox="0 0 1024 1024" version="1.1" xmlns="http://www.w3.org/2000/svg" p-id="13609" width="32" height="32" xmlns:xlink="http://www.w3.org/1999/xlink"><path d="M810.7 64H213.3c-50.8 0-89.6 38.8-89.6 89.6v173.2h59.7c17.9 0 29.9 11.9 29.9 29.9s-11.9 29.9-29.9 29.9h-59.7v238.9h59.7c17.9 0 29.9 11.9 29.9 29.9 0 17.9-11.9 29.9-29.9 29.9h-59.7v185.2c0 50.8 38.8 89.6 89.6 89.6h597.3c50.8 0 89.6-38.8 89.6-89.6V153.6c0.1-50.8-38.8-89.6-89.5-89.6zM541.9 270.1c65.7 0 119.5 53.8 119.5 119.5S607.6 509 541.9 509s-119.5-53.8-119.5-119.5 53.8-119.4 119.5-119.4z m149.3 483.8H392.5c-59.7 0-59.7-44.8-59.7-59.7 0-65.7 71.7-164.3 164.3-164.3h89.6c92.6 0 164.3 98.6 164.3 164.3-0.1 14.9-0.1 59.7-59.8 59.7z" p-id="13610"></path></svg>