<?xml version="1.0" standalone="no"?><!DOCTYPE svg PUBLIC "-//W3C//DTD SVG 1.1//EN" "http://www.w3.org/Graphics/SVG/1.1/DTD/svg11.dtd"><svg t="1708329485828" class="icon" viewBox="0 0 1024 1024" version="1.1" xmlns="http://www.w3.org/2000/svg" p-id="20830" width="32" height="32" xmlns:xlink="http://www.w3.org/1999/xlink"><path d="M257.501867 96.802133a46.421333 46.421333 0 0 1 62.2592 16.384 43.554133 43.554133 0 0 1-16.861867 60.416c-129.8432 72.226133-211.626667 206.165333-211.626667 354.030934 0 225.28 188.416 407.893333 420.727467 407.893333 232.379733 0 420.727467-182.613333 420.727467-407.893333 0-147.319467-81.237333-280.849067-210.261334-353.348267a43.485867 43.485867 0 0 1-16.725333-60.416 46.421333 46.421333 0 0 1 62.395733-16.1792C925.149867 185.821867 1024 348.433067 1024 527.701333 1024 801.792 794.760533 1024 512 1024 229.239467 1024 0 801.792 0 527.633067c0-179.882667 99.5328-342.903467 257.501867-430.762667zM506.948267 0c25.1904 0 45.602133 20.48 45.602133 45.6704v105.335467a45.6704 45.6704 0 1 1-91.272533 0V45.738667c0-25.258667 20.48-45.6704 45.6704-45.6704z m0 245.76c25.1904 0 45.602133 20.48 45.602133 45.738667v56.183466a45.6704 45.6704 0 0 1-91.272533 0v-56.251733c0-25.1904 20.48-45.602133 45.6704-45.602133z" p-id="20831"></path></svg>