<?xml version="1.0" standalone="no"?><!DOCTYPE svg PUBLIC "-//W3C//DTD SVG 1.1//EN" "http://www.w3.org/Graphics/SVG/1.1/DTD/svg11.dtd"><svg t="1711615578769" class="icon" viewBox="0 0 1024 1024" version="1.1" xmlns="http://www.w3.org/2000/svg" p-id="18991" width="32" height="32" xmlns:xlink="http://www.w3.org/1999/xlink"><path d="M413.795 177c35.358 0 64.235 28.923 64.235 64.336v134.919c0-35.412 28.879-64.335 64.236-64.335s64.236 28.923 64.236 64.335v45.795c0-35.411 28.878-64.336 64.235-64.336 35.358 0 64.236 28.924 64.236 64.336v75.089c0-35.412 28.879-64.336 64.236-64.335 35.357 0 64.235 29.108 64.791 64.15v223.969h-0.37C856.964 861.83 740.155 974 597.245 974c-83.858 0-158.83-38.75-207.701-99.191L179.437 664.374c-25.916-25.956-25.916-68.415 0-94.371 25.917-25.957 68.308-25.957 94.225 0l75.897 76.016V241.336c0-35.413 28.879-64.336 64.236-64.336zM415.5 47C536.174 47 634 144.826 634 265.5c0 19.882-16.118 36-36 36-19.683 0-35.677-15.797-35.995-35.405L562 265.5c0-80.91-65.59-146.5-146.5-146.5S269 184.59 269 265.5c0 25.878 6.687 50.697 19.226 72.614l0.491 0.852c9.989 17.191 4.15 39.225-13.041 49.213-17.191 9.989-39.225 4.15-49.213-13.041C207.267 342.099 197 304.506 197 265.5 197 144.826 294.826 47 415.5 47z" p-id="18992"></path></svg>