<?xml version="1.0" standalone="no"?><!DOCTYPE svg PUBLIC "-//W3C//DTD SVG 1.1//EN" "http://www.w3.org/Graphics/SVG/1.1/DTD/svg11.dtd"><svg t="1715760167108" class="icon" viewBox="0 0 1024 1024" version="1.1" xmlns="http://www.w3.org/2000/svg" p-id="10967" width="32" height="32" xmlns:xlink="http://www.w3.org/1999/xlink"><path d="M134 408.17l104.2 70.29 50.55 34.09q15.78-47.65 31.55-95.32 24.84-75.06 49.7-150.11 22.68-68.53 45.37-137.06L436.89 65H125a60 60 0 0 0-60 60v236.63zM259.44 753.54q-18.6 56.19-37.19 112.37L197 942.11q-2.79 8.45-5.59 16.89H865l-67-45.17-104.2-70.29-123.35-83.2-132.73-89.52-123.36-83.2q-4.77 14.43-9.55 28.86-22.68 68.52-45.37 137.06zM141.34 957.88c0.19-0.58 0.39-1.15 0.57-1.72 4.28-13.59 9-27.07 13.43-40.59q14.21-42.89 28.4-85.78 19.74-59.67 39.5-119.33 23.37-70.62 46.76-141.24l3.12-9.43-86.17-58.13-98.14-66.18L65 419.42V899a60 60 0 0 0 60 60h16c0.11-0.38 0.22-0.75 0.34-1.12zM899 65H487.36q-17.89 54.07-35.8 108.14-23.37 70.62-46.75 141.24l-50.31 152-24.5 74 31.55 21.27 132.72 89.53 131.09 88.42 119.69 80.73 98.13 66.19 66.55 44.88L934 947.75A59.9 59.9 0 0 0 959 899V125a60 60 0 0 0-60-60zM608.12 529.39A113.4 113.4 0 1 1 721.51 416a113.39 113.39 0 0 1-113.39 113.39z" p-id="10968"></path><path d="M608.12 416m-62.42 0a62.42 62.42 0 1 0 124.84 0 62.42 62.42 0 1 0-124.84 0Z" p-id="10969"></path></svg>