<?xml version="1.0" standalone="no"?><!DOCTYPE svg PUBLIC "-//W3C//DTD SVG 1.1//EN" "http://www.w3.org/Graphics/SVG/1.1/DTD/svg11.dtd"><svg t="1715760198455" class="icon" viewBox="0 0 1024 1024" version="1.1" xmlns="http://www.w3.org/2000/svg" p-id="11380" width="32" height="32" xmlns:xlink="http://www.w3.org/1999/xlink"><path d="M981.333333 808.96l-97.28-259.413333c-8.533333-23.893333-34.133333-39.253333-63.146666-39.253334h-75.093334c-49.493333 66.56-119.466667 122.88-165.546666 158.72l-8.533334 6.826667c-17.066667 13.653333-40.96 22.186667-63.146666 22.186667-23.893333 0-46.08-8.533333-64.853334-22.186667l-8.533333-6.826667c-49.493333-39.253333-116.053333-92.16-163.84-157.013333H187.733333c-29.013333 0-56.32 15.36-64.853333 39.253333L30.72 803.84c-15.36 40.96 30.72 81.92 80.213333 69.973333l206.506667-42.666666c20.48-3.413333 40.96 0 56.32 10.24l163.84 104.106666c17.066667 10.24 37.546667 13.653333 58.026667 10.24l337.92-73.386666c17.066667-3.413333 32.426667-13.653333 40.96-27.306667 10.24-15.36 11.946667-30.72 6.826666-46.08z m-494.933333-174.08c11.946667 10.24 29.013333 10.24 40.96 0 73.386667-68.266667 213.333333-194.56 213.333333-336.213333C740.693333 170.666667 634.88 68.266667 506.88 68.266667S273.066667 170.666667 273.066667 298.666667c0 141.653333 138.24 266.24 213.333333 336.213333z m20.48-423.253333c30.72 0 61.44 15.36 76.8 42.666666 15.36 27.306667 15.36 59.733333 0 87.04-15.36 27.306667-46.08 42.666667-76.8 42.666667-47.786667 0-87.04-39.253333-87.04-87.04s39.253333-85.333333 87.04-85.333333z m0 0" p-id="11381"></path></svg>