<?xml version="1.0" standalone="no"?><!DOCTYPE svg PUBLIC "-//W3C//DTD SVG 1.1//EN" "http://www.w3.org/Graphics/SVG/1.1/DTD/svg11.dtd"><svg t="1699860719752" class="icon" viewBox="0 0 1080 1024" version="1.1" xmlns="http://www.w3.org/2000/svg" p-id="30700" width="33.75" height="32" xmlns:xlink="http://www.w3.org/1999/xlink"><path d="M941.34455136 32H93.25188261A82.58521594 82.58521594 0 0 0 10.66666667 114.58521594v603.15623906a82.58521594 82.58521594 0 0 0 82.58521594 82.58521594H941.34455136a82.58521594 82.58521594 0 0 0 82.58521687-82.58521594V114.58521594A82.58521594 82.58521594 0 0 0 941.34455136 32zM533.05004417 684.347135c-139.89814781 0-253.31577562-111.66120937-253.31577562-249.47850469s113.41762687-249.47850469 253.31577562-249.47850562 253.31577562 111.69477094 253.31577562 249.47850562-113.40643969 249.47850469-253.31577562 249.47850469z" p-id="30701"></path><path d="M457.72543573 283.66004375a75.83922844 75.83922844 0 1 1-75.82804125 75.8392275 75.82804031 75.82804031 0 0 1 75.82804125-75.8392275zM157.24367886 913.68836187h712.63590937c18.88429219 0 34.19981156 13.72691156 34.19981063 30.65341219v17.00481282c0 16.92650156-15.31551937 30.65341312-34.19981063 30.65341312h-712.63590937c-18.88429219 0-34.19981156-13.72691156-34.19981156-30.65341313v-17.02718718c0-16.92650156 15.30433125-30.63103781 34.19981156-30.63103782z" p-id="30702"></path></svg>