<?xml version="1.0" standalone="no"?><!DOCTYPE svg PUBLIC "-//W3C//DTD SVG 1.1//EN" "http://www.w3.org/Graphics/SVG/1.1/DTD/svg11.dtd"><svg t="1700193498699" class="icon" viewBox="0 0 1024 1024" version="1.1" xmlns="http://www.w3.org/2000/svg" p-id="4521" width="32" height="32" xmlns:xlink="http://www.w3.org/1999/xlink"><path d="M853.333333 256h-341.333333l-85.333333-85.333333H170.666667a85.333333 85.333333 0 0 0-85.333334 85.333333v512a85.333333 85.333333 0 0 0 85.333334 85.333333h682.666666a85.333333 85.333333 0 0 0 85.333334-85.333333V341.333333a85.333333 85.333333 0 0 0-85.333334-85.333333zM362.666667 341.333333a106.666667 106.666667 0 1 1 0 213.333334 106.666667 106.666667 0 0 1 0-213.333334zM554.666667 768H170.666667v-42.666667a128 128 0 0 1 128-128h128a128 128 0 0 1 128 128v42.666667z m213.333333-170.666667h-170.666667v-85.333333h170.666667v85.333333z m85.333333-128h-256V384h256v85.333333z" p-id="4522"></path></svg>