<?xml version="1.0" standalone="no"?><!DOCTYPE svg PUBLIC "-//W3C//DTD SVG 1.1//EN" "http://www.w3.org/Graphics/SVG/1.1/DTD/svg11.dtd"><svg t="1713506396234" class="icon" viewBox="0 0 1024 1024" version="1.1" xmlns="http://www.w3.org/2000/svg" p-id="3553" width="32" height="32" xmlns:xlink="http://www.w3.org/1999/xlink"><path d="M161.08 367.25v290.7c0 113.03 91.62 204.65 204.65 204.65h290.7c113.03 0 204.65-91.62 204.65-204.65v-290.7c0-113.03-91.62-204.65-204.65-204.65h-290.7c-113.03 0-204.65 91.62-204.65 204.65z m526.79 72.15h-15.68s-29.84-72.65-65.07-79.06c-35.23-6.32-59.67-1.94-59.67-1.94l-0.42 303.43s9.78 20.48 25.88 22h35.74v20.99H413.52l0.51-21.49 31.27-0.51s23.52-7.33 23.52-24.44c0-17.03 0.51-297.53 0.51-297.53s-38.6-5.31-58.66-0.42c-20.06 4.89-55.29 34.14-60.69 77.04l-15.68 0.51v-117.6h353.58l-0.01 119.02z" p-id="3554"></path></svg>