<?xml version="1.0" standalone="no"?><!DOCTYPE svg PUBLIC "-//W3C//DTD SVG 1.1//EN" "http://www.w3.org/Graphics/SVG/1.1/DTD/svg11.dtd"><svg t="1710474589407" class="icon" viewBox="0 0 1024 1024" version="1.1" xmlns="http://www.w3.org/2000/svg" p-id="37579" width="32" height="32" xmlns:xlink="http://www.w3.org/1999/xlink"><path d="M514 114.3c-219.9 0-398.8 178.9-398.8 398.8 0 220 178.9 398.9 398.8 398.9s398.8-178.9 398.8-398.9c0-219.8-178.9-398.8-398.8-398.8z m232.1 440.4L582 718.8c-22.9 22.9-60.2 22.9-83.1 0-11.5-11.5-17.2-26.5-17.2-41.5s5.7-30.1 17.2-41.5l63.8-63.8H334c-32.5 0-58.8-26.3-58.8-58.8s26.3-58.8 58.8-58.8h228.7l-63.8-63.8c-22.9-22.9-22.9-60.2 0-83.1 22.9-22.9 60.2-22.9 83.1 0l164.1 164.1c22.9 23 22.9 60.2 0 83.1z" p-id="37580"></path></svg>