<?xml version="1.0" standalone="no"?><!DOCTYPE svg PUBLIC "-//W3C//DTD SVG 1.1//EN" "http://www.w3.org/Graphics/SVG/1.1/DTD/svg11.dtd"><svg t="1713508125261" class="icon" viewBox="0 0 1024 1024" version="1.1" xmlns="http://www.w3.org/2000/svg" p-id="6616" width="32" height="32" xmlns:xlink="http://www.w3.org/1999/xlink"><path d="M928.033181 416.019419c-28.414988 0-53.950078 12.35156-71.549451 31.99886h-189.945233l134.299216-134.299215a95.99658 95.99658 0 1 0-90.524776-90.524775l-134.299215 134.299215V167.548271a95.99658 95.99658 0 1 0-127.99544 0v189.945233L313.719066 223.194289a95.99658 95.99658 0 1 0-90.524775 90.524775L357.493507 448.018279H167.548273a95.99658 95.99658 0 1 0 0 127.995441h189.945234l-134.299216 134.299215a95.99658 95.99658 0 1 0 90.524775 90.524775l134.299216-134.299215v189.945233a95.99658 95.99658 0 1 0 127.99544-0.031999v-189.945233l134.299215 134.299215a95.99658 95.99658 0 1 0 90.524776-90.524775l-134.299216-134.299215h189.945233a95.99658 95.99658 0 1 0 71.517452-159.994301z" p-id="6617"></path></svg>