<?xml version="1.0" standalone="no"?><!DOCTYPE svg PUBLIC "-//W3C//DTD SVG 1.1//EN" "http://www.w3.org/Graphics/SVG/1.1/DTD/svg11.dtd"><svg t="1708328109972" class="icon" viewBox="0 0 1024 1024" version="1.1" xmlns="http://www.w3.org/2000/svg" p-id="7805" width="32" height="32" xmlns:xlink="http://www.w3.org/1999/xlink"><path d="M512 0C230.4 0 0 230.4 0 512s230.4 512 512 512c119.466667 0 128-106.666667 136.533333-183.466667 4.266667-51.2 8.533333-106.666667 38.4-136.533333 21.333333-25.6 85.333333-38.4 136.533334-46.933333 89.6-17.066667 200.533333-42.666667 200.533333-145.066667 0-281.6-230.4-512-512-512z m294.4 571.733333c-68.266667 12.8-145.066667 29.866667-183.466667 76.8-46.933333 51.2-51.2 123.733333-59.733333 183.466667-8.533333 98.133333-17.066667 106.666667-51.2 106.666667-234.666667 0-426.666667-192-426.666667-426.666667S277.333333 85.333333 512 85.333333s426.666667 192 426.666667 426.666667c0 29.866667-55.466667 42.666667-132.266667 59.733333z" p-id="7806"></path><path d="M605.866667 179.2c-51.2 0-93.866667 42.666667-93.866667 93.866667s42.666667 93.866667 93.866667 93.866666c51.2 0 93.866667-42.666667 93.866666-93.866666s-42.666667-93.866667-93.866666-93.866667z m0 128c-17.066667 0-34.133333-12.8-34.133334-34.133333s12.8-34.133333 34.133334-34.133334 34.133333 21.333333 34.133333 38.4-17.066667 29.866667-34.133333 29.866667z" p-id="7807"></path><path d="M324.266667 371.2m-93.866667 0a93.866667 93.866667 0 1 0 187.733333 0 93.866667 93.866667 0 1 0-187.733333 0Z" p-id="7808"></path><path d="M345.6 580.266667c-51.2 0-93.866667 42.666667-93.866667 93.866666s42.666667 93.866667 93.866667 93.866667 93.866667-42.666667 93.866667-93.866667-38.4-93.866667-93.866667-93.866666z m0 128c-17.066667 0-34.133333-12.8-34.133333-34.133334s12.8-34.133333 34.133333-34.133333 34.133333 12.8 34.133333 34.133333-12.8 34.133333-34.133333 34.133334z" p-id="7809"></path></svg>