<?xml version="1.0" standalone="no"?><!DOCTYPE svg PUBLIC "-//W3C//DTD SVG 1.1//EN" "http://www.w3.org/Graphics/SVG/1.1/DTD/svg11.dtd"><svg t="1709278647109" class="icon" viewBox="0 0 1024 1024" version="1.1" xmlns="http://www.w3.org/2000/svg" p-id="4050" width="32" height="32" xmlns:xlink="http://www.w3.org/1999/xlink"><path d="M389.9 420.7c-35-15.5-75.4-6.9-102.1 21.9-26.8 28.7-34.7 71.8-20.1 109.2 14.6 37.4 48.8 61.7 86.8 61.6 24.8 0 48.6-10.6 66.1-29.4 17.5-18.8 27.3-44.2 27.3-70.7-0.1-40.6-23-77.2-58-92.6z m36.4-179.8c10-10.5 24.6-14.3 38.1-10 12.4 5.6 24.4 12.2 35.9 19.7 11.8 6.8 23.2 14.5 33.9 23.1 10.2 10.4 14.3 25.8 10.9 40.4l-2.8 9.5c-11.7 52 16.6 104.8 64.5 120.3l9.4 2.3c13.6 4.1 24 15.7 27.2 30.4 1.9 14.3 2.9 28.7 2.8 43.2 0.1 14.3-0.7 28.5-2.6 42.7-3.1 14.8-13.5 26.6-27.2 30.7l-8.9 2.1c-48.2 15.3-76.8 68.4-65 120.6l2.8 9.8c3.4 14.6-0.8 30.1-11.1 40.4-10.7 8.7-22.1 16.6-33.9 23.5-11.6 7.5-23.6 14.1-36.1 19.7-13.4 4.3-28 0.6-38.1-9.8l-6.3-7.2c-36.4-37-93.5-37-129.9 0l-6.3 6.6c-10.1 10.4-24.7 14.2-38.1 9.8-12.5-5.3-24.5-11.6-36.1-18.9-11.9-6.9-23.2-14.7-33.9-23.5-10.3-10.3-14.5-25.8-11.1-40.4l2.8-9.5c11.8-52.3-16.7-105.3-65-120.6l-8.9-2.1c-13.7-4.3-24.1-16.3-27-31.2-1.7-14.1-2.3-28.3-2-42.5-0.4-14.5 0.3-29 2-43.3 3.2-14.6 13.5-26.2 27-30.4l9.2-2.3c47.9-15.4 76.2-68 64.7-120l-2.8-9.5c-3.5-14.6 0.8-30.1 11.1-40.4 10.7-8.7 22.1-16.6 33.9-23.5 11.6-7.5 23.7-14 36.2-19.5 13.5-4.3 28-0.5 38.1 10l6.3 7.4c36.3 36.9 93.3 36.9 129.6 0l6.7-7.6z m316.6-134.8v138.8c0 18.5 7.3 35.9 20.5 49.2 13.2 13.2 30.7 20.5 49.2 20.5 18.5 0 35.9-7.3 49.1-20.5 13.2-13.2 20.5-30.7 20.5-49.2l-0.1-138.8c0-13.9 15-22.7 27.1-15.8 3.1 1.8 6.2 3.7 9.2 5.6 11.4 7.4 22.2 16.1 32.1 26 76.4 76.4 76.1 200.9-0.5 276.9-9.8 9.7-20.3 18.2-31.5 25.4-10.3 6.7-16.5 18.1-16.4 30.4l0.1 391.5c0 24.7-10.1 47.2-26.4 63.5-16.3 16.3-38.8 26.4-63.5 26.4-24.7 0-47.2-10.1-63.5-26.5-16.3-16.3-26.4-38.8-26.5-63.5l-0.1-392c0-12.2-6.2-23.7-16.4-30.3-11.1-7.2-21.6-15.8-31.3-25.5-76.3-76.1-76.4-200.2-0.3-276.4 10-10 20.7-18.6 32.1-26 3-2 6.1-3.9 9.2-5.6 12.3-6.8 27.4 2 27.4 15.9z" p-id="4051"></path></svg>