<?xml version="1.0" standalone="no"?><!DOCTYPE svg PUBLIC "-//W3C//DTD SVG 1.1//EN" "http://www.w3.org/Graphics/SVG/1.1/DTD/svg11.dtd"><svg t="1715763550776" class="icon" viewBox="0 0 1024 1024" version="1.1" xmlns="http://www.w3.org/2000/svg" p-id="3510" width="32" height="32" xmlns:xlink="http://www.w3.org/1999/xlink"><path d="M1011.203225 12.796759c44.788656 44.788656-44.788656 217.544902-211.146523 403.097907-6.398379 6.398379-6.398379 12.796759-6.398379 25.593518l70.382174 518.268738c0 12.796759 0 19.195138-12.796759 25.593518l-44.788656 31.991897c-12.796759 12.796759-38.390277 6.398379-44.788656-12.796759l-147.162728-345.512492C601.706939 639.837948 582.5118 633.439569 563.316662 646.236328c-57.585415 51.187036-115.170831 95.975692-166.357867 127.96759C384.162036 780.602297 384.162036 793.399056 384.162036 806.195815l31.991897 147.162728c0 12.796759 0 25.593518-12.796759 31.991897l0 0c-12.796759 6.398379-31.991897 6.398379-38.390277-12.796759l-115.170831-185.553005 0 0-12.796759-12.796759-179.154625-115.170831C45.047924 659.033087 38.649544 639.837948 45.047924 627.041189l0 0C51.446303 614.24443 64.243062 607.846051 77.039821 614.24443l147.162728 31.991897c12.796759 0 25.593518 0 31.991897-12.796759 31.991897-51.187036 70.382174-102.374072 121.56921-159.959487C384.162036 454.284943 384.162036 435.089805 364.966898 422.293046L19.454406 275.130318C0.259267 268.731938-6.139112 249.5368 6.657647 230.341661l31.991897-44.788656C45.047924 172.756246 57.844683 172.756246 64.243062 172.756246l511.870359 70.382174c6.398379 0 19.195138 0 25.593518-6.398379C793.658323 63.983795 966.414569-31.991897 1011.203225 12.796759L1011.203225 12.796759 1011.203225 12.796759zM704.08101 403.097907c-6.398379-6.398379-19.195138-6.398379-25.593518 0L569.715041 511.870359c-6.398379 6.398379-6.398379 19.195138 0 25.593518l0 0c6.398379 6.398379 19.195138 6.398379 25.593518 0L704.08101 428.691425C710.47939 422.293046 710.47939 409.496287 704.08101 403.097907L704.08101 403.097907 704.08101 403.097907 704.08101 403.097907zM627.300457 326.317354C620.902077 319.918974 608.105318 319.918974 601.706939 326.317354L492.934487 435.089805c-6.398379 6.398379-6.398379 19.195138 0 25.593518l0 0c6.398379 6.398379 19.195138 6.398379 25.593518 0l108.772451-108.772451C633.698836 345.512492 633.698836 332.715733 627.300457 326.317354L627.300457 326.317354 627.300457 326.317354zM627.300457 326.317354" fill="#3D3D3D" p-id="3511"></path></svg>