<?xml version="1.0" standalone="no"?><!DOCTYPE svg PUBLIC "-//W3C//DTD SVG 1.1//EN" "http://www.w3.org/Graphics/SVG/1.1/DTD/svg11.dtd"><svg t="1711615173385" class="icon" viewBox="0 0 1024 1024" version="1.1" xmlns="http://www.w3.org/2000/svg" p-id="14321" width="32" height="32" xmlns:xlink="http://www.w3.org/1999/xlink"><path d="M844.8 802.133333a42.666667 42.666667 0 0 1 0 85.333334H179.2a42.666667 42.666667 0 0 1 0-85.333334h665.6zM512 85.674667a192 192 0 0 1 101.248 355.157333c-9.386667 9.045333-15.232 21.888-15.232 36.309333 0 27.349333 21.205333 49.621333 47.573333 49.621334 0.853333 0 1.706667 0.256 2.432 0.554666h201.472c20.906667 0 37.973333 17.92 37.973334 39.722667v118.912c0 21.845333-17.066667 39.68-37.973334 39.68H174.506667c-20.906667 0-37.973333-17.834667-37.973334-39.68V567.04c0-21.845333 17.066667-39.68 37.973334-39.68h212.352c22.869333-3.413333 40.533333-24.192 40.533333-49.109333 0-16.426667-7.722667-31.018667-19.541333-40.064l3.242666 2.858666A192 192 0 0 1 512 85.632z" p-id="14322"></path></svg>