<?xml version="1.0" standalone="no"?><!DOCTYPE svg PUBLIC "-//W3C//DTD SVG 1.1//EN" "http://www.w3.org/Graphics/SVG/1.1/DTD/svg11.dtd"><svg t="1699861703792" class="icon" viewBox="0 0 1024 1024" version="1.1" xmlns="http://www.w3.org/2000/svg" p-id="33655" width="32" height="32" xmlns:xlink="http://www.w3.org/1999/xlink"><path d="M935.253333 192.853333L534.186667 71.68c-13.653333-5.12-29.013333-5.12-44.373334 0L88.746667 192.853333c-32.426667 8.533333-54.613333 39.253333-54.613334 73.386667v489.813333c0 34.133333 22.186667 63.146667 52.906667 73.386667L477.866667 955.733333V307.2l-298.666667-81.92L512 131.413333l332.8 93.866667L546.133333 307.2v648.533333l390.826667-128c32.426667-10.24 52.906667-39.253333 52.906667-73.386666V266.24c0-34.133333-22.186667-64.853333-54.613334-73.386667z m-52.906666 259.413334l-206.506667 73.386666c-3.413333 1.706667-6.826667 1.706667-11.946667 1.706667-13.653333 0-27.306667-8.533333-32.426666-22.186667-6.826667-17.066667 3.413333-37.546667 20.48-44.373333l206.506666-73.386667c17.066667-6.826667 37.546667 3.413333 44.373334 20.48 5.12 18.773333-3.413333 39.253333-20.48 44.373334z" p-id="33656"></path></svg>